<svg xmlns="http://www.w3.org/2000/svg" width="263" height="263" fill="none" viewBox="0 0 263 263">
  <g clip-path="url(#a)">
    <path fill="#33373E" d="M131.503 154.767c12.971 0 23.485-10.514 23.485-23.485 0-12.97-10.514-23.485-23.485-23.485-12.97 0-23.485 10.515-23.485 23.485 0 12.971 10.515 23.485 23.485 23.485Z"/>
    <path stroke="#33373E" stroke-width="11.235" d="M131.508 83.533c31.532 0 60.824 4.524 82.911 12.128 26.611 9.161 42.972 23.048 42.972 35.622 0 13.103-17.34 27.856-45.916 37.324-21.605 7.158-50.035 10.894-79.967 10.894-30.689 0-59.749-3.507-81.597-10.973-27.642-9.448-44.29-24.391-44.29-37.245 0-12.472 15.621-26.252 41.858-35.399 22.169-7.729 52.185-12.351 84.025-12.351h.004Z" clip-rule="evenodd"/>
    <path stroke="#33373E" stroke-width="11.235" d="M89.943 107.545c15.753-27.316 34.306-50.43 51.926-65.765 21.231-18.475 41.434-25.71 52.326-19.43 11.352 6.546 15.469 28.938 9.394 58.422-4.587 22.292-15.558 48.786-30.511 74.715-15.332 26.585-32.887 50.007-50.268 65.199-21.993 19.226-43.256 26.183-54.39 19.762-10.805-6.227-14.937-26.647-9.754-53.946 4.38-23.065 15.37-51.376 31.272-78.958l.005.001Z" clip-rule="evenodd"/>
    <path stroke="#33373E" stroke-width="11.235" d="M89.973 155.557C74.176 128.272 63.42 100.65 58.93 77.726c-5.405-27.62-1.584-48.738 9.299-55.037 11.34-6.566 32.795 1.05 55.306 21.038 17.019 15.111 34.496 37.843 49.493 63.748 15.375 26.559 26.899 53.466 31.382 76.111 5.673 28.656 1.081 50.552-10.043 56.991-10.794 6.249-30.546-.367-51.608-18.491-17.795-15.313-36.834-38.974-52.787-66.53v.001Z" clip-rule="evenodd"/>
  </g>
  <defs>
    <clipPath id="a">
      <path fill="#fff" d="M0 0h263v263H0z"/>
    </clipPath>
  </defs>
</svg>
