<svg xmlns="http://www.w3.org/2000/svg" width="251" height="227" fill="none" viewBox="0 0 251 227">
  <path fill="#F5F5F5" d="M131.883 140.636c12.97 0 23.485-10.515 23.485-23.485 0-12.971-10.515-23.486-23.485-23.486-12.971 0-23.485 10.515-23.485 23.486 0 12.97 10.514 23.485 23.485 23.485Z"/>
  <path stroke="#F5F5F5" stroke-width="11.235" d="M131.888 69.4c31.532 0 60.824 4.525 82.91 12.129 26.611 9.162 42.973 23.048 42.973 35.622 0 13.103-17.34 27.856-45.917 37.324-21.604 7.158-50.035 10.895-79.966 10.895-30.689 0-59.75-3.508-81.597-10.974C22.649 144.948 6 130.005 6 117.151 6 104.679 21.622 90.9 47.859 81.752c22.169-7.729 52.184-12.351 84.024-12.351h.005Z" clip-rule="evenodd"/>
  <path stroke="#F5F5F5" stroke-width="11.235" d="M90.323 93.413c15.753-27.315 34.305-50.43 51.926-65.764 21.23-18.476 41.434-25.712 52.326-19.43 11.351 6.546 15.468 28.937 9.394 58.422-4.588 22.291-15.558 48.785-30.511 74.715-15.332 26.584-32.887 50.006-50.268 65.198-21.993 19.226-43.256 26.183-54.39 19.762-10.805-6.226-14.937-26.647-9.754-53.945 4.38-23.065 15.37-51.376 31.272-78.959h.005Z" clip-rule="evenodd"/>
  <path stroke="#F5F5F5" stroke-width="11.235" d="M90.353 141.425C74.555 114.141 63.8 86.518 59.31 63.595c-5.404-27.621-1.583-48.739 9.3-55.038 11.34-6.565 32.795 1.05 55.305 21.038 17.02 15.112 34.497 37.843 49.493 63.748 15.376 26.559 26.9 53.466 31.383 76.111 5.672 28.657 1.081 50.552-10.043 56.992-10.794 6.248-30.546-.367-51.608-18.492-17.795-15.313-36.834-38.974-52.787-66.53v.001Z" clip-rule="evenodd"/>
</svg>
