<svg xmlns="http://www.w3.org/2000/svg" width="83" height="26" fill="none" viewBox="0 0 83 26">
  <g clip-path="url(#clip0_2_14)">
    <path fill="#FF5A5F" d="M43.227 6.37c0 .913-.743 1.65-1.665 1.65a1.654 1.654 0 01-1.665-1.65c0-.914.717-1.65 1.665-1.65.948.026 1.665.762 1.665 1.65zm-6.865 3.324v.406s-.794-1.015-2.485-1.015c-2.792 0-4.97 2.106-4.97 5.024 0 2.894 2.153 5.025 4.97 5.025 1.717 0 2.485-1.04 2.485-1.04v.431c0 .203.154.355.358.355h2.075V9.338H36.72a.366.366 0 00-.358.356zm0 6.116c-.384.558-1.153 1.04-2.075 1.04-1.64 0-2.895-1.015-2.895-2.74 0-1.726 1.256-2.741 2.895-2.741.897 0 1.717.507 2.075 1.04v3.4zm3.97-6.471h2.46v9.542h-2.46V9.339zm36.733-.254c-1.69 0-2.485 1.015-2.485 1.015V4.746h-2.459V18.88h2.075a.364.364 0 00.359-.356v-.431s.794 1.04 2.484 1.04c2.793 0 4.97-2.13 4.97-5.024 0-2.893-2.177-5.025-4.944-5.025zm-.41 7.74c-.948 0-1.69-.482-2.075-1.04v-3.401c.385-.508 1.204-1.04 2.075-1.04 1.64 0 2.895 1.014 2.895 2.74 0 1.726-1.255 2.74-2.895 2.74zm-5.814-3.603v5.684h-2.46v-5.405c0-1.573-.512-2.208-1.894-2.208-.743 0-1.512.38-2 .939v6.649H62.03V9.339h1.946c.205 0 .36.178.36.355v.406c.717-.736 1.664-1.015 2.612-1.015 1.076 0 1.972.305 2.69.914.87.71 1.204 1.624 1.204 3.223zM56.06 9.085c-1.691 0-2.485 1.015-2.485 1.015V4.746h-2.46V18.88h2.075a.365.365 0 00.359-.356v-.431s.794 1.04 2.485 1.04c2.792 0 4.97-2.13 4.97-5.024.025-2.893-2.153-5.025-4.945-5.025zm-.41 7.74c-.949 0-1.691-.482-2.075-1.04v-3.401c.384-.508 1.204-1.04 2.074-1.04 1.64 0 2.895 1.014 2.895 2.74 0 1.726-1.255 2.74-2.895 2.74zm-6.66-7.74c.742 0 1.126.127 1.126.127v2.258s-2.049-.685-3.33.762v6.674h-2.459V9.339h2.075c.205 0 .358.177.358.355v.406c.462-.533 1.461-1.015 2.23-1.015zm-25.54 8.933c-.127-.305-.255-.635-.383-.914-.205-.457-.41-.888-.59-1.294l-.025-.026a263.566 263.566 0 00-5.661-11.47l-.077-.152c-.21-.395-.415-.793-.614-1.193-.257-.457-.513-.939-.922-1.396C14.358.558 13.18 0 11.925 0c-1.28 0-2.433.558-3.278 1.522-.384.457-.666.94-.922 1.396-.2.4-.405.798-.615 1.193l-.077.153c-1.972 3.806-3.893 7.663-5.66 11.47l-.027.05c-.179.407-.384.838-.589 1.294-.128.28-.256.584-.384.914-.333.939-.436 1.827-.307 2.74a5.402 5.402 0 003.33 4.213 5.3 5.3 0 002.075.407 6.809 6.809 0 003.228-.913c1.05-.585 2.049-1.422 3.176-2.64 1.127 1.218 2.151 2.055 3.176 2.64a6.811 6.811 0 003.228.913c.717 0 1.434-.127 2.075-.407a5.392 5.392 0 003.33-4.212c.203-.888.1-1.776-.232-2.715zM11.9 19.338c-1.384-1.727-2.28-3.35-2.587-4.72-.128-.584-.154-1.092-.077-1.549.05-.406.205-.761.41-1.066.486-.684 1.306-1.116 2.254-1.116s1.793.406 2.254 1.116c.205.305.359.66.41 1.066.077.457.052.99-.076 1.549-.309 1.344-1.205 2.968-2.588 4.72zm10.22 1.192a3.777 3.777 0 01-2.331 2.97c-.615.253-1.281.33-1.947.253a5.076 5.076 0 01-1.946-.66c-.923-.508-1.845-1.294-2.92-2.462 1.69-2.055 2.714-3.933 3.099-5.608a6.29 6.29 0 00.128-2.157 4.093 4.093 0 00-.692-1.726C14.717 9.998 13.385 9.34 11.9 9.34c-1.485 0-2.817.685-3.611 1.801a4.097 4.097 0 00-.692 1.726 5.224 5.224 0 00.128 2.157c.384 1.675 1.434 3.578 3.1 5.634-1.05 1.167-1.999 1.954-2.921 2.462a5.06 5.06 0 01-1.946.66 4.132 4.132 0 01-1.947-.254 3.777 3.777 0 01-2.33-2.97 4.161 4.161 0 01.23-1.979c.076-.254.205-.507.333-.812.179-.406.383-.838.589-1.269l.025-.05A275.624 275.624 0 018.493 5.05l.076-.152c.206-.38.41-.787.615-1.167.205-.406.436-.787.718-1.117a2.69 2.69 0 012.049-.939c.794 0 1.511.33 2.05.939.281.33.511.711.716 1.117.206.38.41.787.615 1.167l.077.152a334.732 334.732 0 015.61 11.42v.025c.205.407.384.863.59 1.27.127.304.255.557.332.811.205.66.281 1.294.179 1.954z"/>
  </g>
  <defs>
    <clipPath id="clip0_2_14">
      <path fill="#fff" d="M0 0h82.02v25.352H0z"/>
    </clipPath>
  </defs>
</svg>
